<svg xmlns="http://www.w3.org/2000/svg" xmlns:xlink="http://www.w3.org/1999/xlink" viewBox="0 0 1024 1024"><defs><style>.cls-1{isolation:isolate;}.cls-2{fill:#493712;}.cls-3{fill:url(#linear-gradient);}.cls-4{fill:url(#linear-gradient-2);}.cls-5{fill:url(#New_Gradient_Swatch_3);}.cls-6{fill:url(#linear-gradient-3);}.cls-7{fill:url(#linear-gradient-4);}.cls-8{fill:url(#New_Gradient_Swatch_2);}.cls-9{fill:url(#radial-gradient);}.cls-10{mix-blend-mode:overlay;}.cls-11{fill:#fff;}</style><linearGradient id="linear-gradient" x1="154.33" y1="-1693.15" x2="154.33" y2="-1784.34" gradientTransform="matrix(0.49, -1.31, 1.13, 0.43, 2232.75, 1143.25)" gradientUnits="userSpaceOnUse"><stop offset="0.35" stop-color="#f2f2f2"/><stop offset="0.42" stop-color="#dfdfdf"/><stop offset="0.51" stop-color="#c7c7c7"/><stop offset="0.6" stop-color="#b8b8b8"/><stop offset="0.68" stop-color="#b3b3b3"/><stop offset="0.68" stop-color="#b6b6b6"/><stop offset="0.77" stop-color="#d6d6d6"/><stop offset="0.85" stop-color="#ededed"/><stop offset="0.93" stop-color="#fafafa"/><stop offset="1" stop-color="#fff"/></linearGradient><linearGradient id="linear-gradient-2" x1="155.31" y1="-1676.92" x2="155.31" y2="-1749.56" xlink:href="#linear-gradient"/><linearGradient id="New_Gradient_Swatch_3" x1="-534.02" y1="-1090.05" x2="-374.75" y2="-1090.05" gradientTransform="translate(1473.93 697.56) rotate(-45)" gradientUnits="userSpaceOnUse"><stop offset="0.21" stop-color="#662d91"/><stop offset="0.32" stop-color="#693193"/><stop offset="0.43" stop-color="#723e9a"/><stop offset="0.54" stop-color="#8253a5"/><stop offset="0.65" stop-color="#9771b5"/><stop offset="0.76" stop-color="#b397c9"/><stop offset="0.88" stop-color="#d5c6e1"/><stop offset="0.99" stop-color="#fdfcfd"/><stop offset="1" stop-color="#fff"/></linearGradient><linearGradient id="linear-gradient-3" x1="-534.02" y1="-1083.93" x2="-374.75" y2="-1083.93" gradientTransform="translate(1473.93 697.56) rotate(-45)" gradientUnits="userSpaceOnUse"><stop offset="0" stop-color="#fff"/><stop offset="0.01" stop-color="#fdfcfd"/><stop offset="0.12" stop-color="#d5c6e1"/><stop offset="0.24" stop-color="#b397c9"/><stop offset="0.35" stop-color="#9771b5"/><stop offset="0.46" stop-color="#8253a5"/><stop offset="0.57" stop-color="#723e9a"/><stop offset="0.68" stop-color="#693193"/><stop offset="0.79" stop-color="#662d91"/></linearGradient><linearGradient id="linear-gradient-4" x1="2800.92" y1="-316.56" x2="2960.19" y2="-316.56" gradientTransform="matrix(0.21, 0.98, -0.98, 0.21, -603.97, -2479.61)" gradientUnits="userSpaceOnUse"><stop offset="0.21" stop-color="#ff931e"/><stop offset="0.23" stop-color="#fe8f21"/><stop offset="0.4" stop-color="#f86740"/><stop offset="0.56" stop-color="#f34759"/><stop offset="0.72" stop-color="#f0306b"/><stop offset="0.87" stop-color="#ee2375"/><stop offset="1" stop-color="#ed1e79"/></linearGradient><linearGradient id="New_Gradient_Swatch_2" x1="2800.92" y1="-310.44" x2="2960.19" y2="-310.44" gradientTransform="matrix(0.21, 0.98, -0.98, 0.21, -603.97, -2479.61)" gradientUnits="userSpaceOnUse"><stop offset="0" stop-color="#ed1e79"/><stop offset="0.13" stop-color="#ee2375"/><stop offset="0.28" stop-color="#f0306b"/><stop offset="0.44" stop-color="#f34759"/><stop offset="0.6" stop-color="#f86740"/><stop offset="0.77" stop-color="#fe8f21"/><stop offset="0.79" stop-color="#ff931e"/></linearGradient><radialGradient id="radial-gradient" cx="1185.63" cy="522.24" r="117.96" gradientTransform="matrix(1.98, 0.14, -0.03, 0.55, -1632.14, 370.91)" gradientUnits="userSpaceOnUse"><stop offset="0" stop-color="#280d1a"/><stop offset="0.24" stop-color="#2c0e1e"/><stop offset="0.47" stop-color="#37112a"/><stop offset="0.71" stop-color="#49163e"/><stop offset="0.94" stop-color="#621c5a"/><stop offset="1" stop-color="#691e62"/></radialGradient></defs><g class="cls-1"><g id="Layer_1" data-name="Layer 1"><path d="M74.86,725.08v-6.5a36,36,0,0,1,.77-5.17c.51-2.68,1-5.49,1.53-8.42s1-5.61,1.53-8a29.9,29.9,0,0,0,.76-4.78,38.61,38.61,0,0,0,1-5.55q.57-4.39,1-9.38c.25-3.31.51-6.44.76-9.38s.39-4.78.39-5.54a8.55,8.55,0,0,1,1.14-2.3c.77-1.27,1.6-2.68,2.49-4.21s1.78-2.93,2.68-4.21a25,25,0,0,0,1.72-2.68,23.38,23.38,0,0,0,2.68-5.17,47.59,47.59,0,0,1,2.68-5.55q4.59-8.4,8.61-15.88t8-14.16a107.72,107.72,0,0,1,21.24-25.45q.38-.76,3.45-2.87a33.93,33.93,0,0,0,3.82-2.87c0-.25.38-.83,1.15-1.72s1.66-1.92,2.68-3.07,1.91-2.23,2.68-3.25a5.67,5.67,0,0,0,1.15-1.91,44.69,44.69,0,0,1,5.74-2.68,45.41,45.41,0,0,0,5.74-2.68c.51,0,1.27-.89,2.3-2.68s1.78-2.68,2.29-2.68c1.28-.76,3.25-1.78,5.93-3.06s4.27-2.3,4.79-3.06c1,0,3.38.13,7.08.38s7.2.38,10.52.38q6.12,0,6.89-.76,4.59-.37,7.47-.58t5.74-.57a43,43,0,0,0,4.4-.76,37,37,0,0,0,7.27-1.35,50.9,50.9,0,0,1,6.12-1.33h65.07a26.82,26.82,0,0,0,7.84-9.76,59,59,0,0,0,4.4-12.63,98.25,98.25,0,0,0,2.11-13.59q.57-6.89.57-12.25v-79.6a22.14,22.14,0,0,1-2.29-8c-.26-2.81-.52-5.61-.77-8.42a54.38,54.38,0,0,0-1.34-8,23.28,23.28,0,0,0-3.25-7.27,22.17,22.17,0,0,0-3.83-4.59c-2-2-3.19-3.06-3.44-3.06a45.15,45.15,0,0,0-6.13-1.73,19.07,19.07,0,0,1-5.36-1.72c-.25-.25-1-.89-2.29-1.91s-2.68-2.11-4.21-3.25-2.94-2.23-4.21-3.26a7.83,7.83,0,0,0-2.3-1.53q-.76-.76-5.36-1.53t-5.36-1.92a32.91,32.91,0,0,1-10.9-5.74A12.89,12.89,0,0,1,244.41,345q0-6.89,3.82-10.14a22.2,22.2,0,0,1,9.19-4.59,53.2,53.2,0,0,1,11.29-1.54,79.51,79.51,0,0,0,10.53-.95,20,20,0,0,1,5.54-1.73q4.41-.94,5.17-1.72c.77,0,2.42-.06,5-.19s5.29-.32,8.23-.57,5.67-.51,8.22-.77a29.4,29.4,0,0,0,5-.76,55.62,55.62,0,0,0,15.5-4.6A35.85,35.85,0,0,1,347,314a26.33,26.33,0,0,1,18.18,7.08,32.29,32.29,0,0,1,10.14,16.65v19.9a196.48,196.48,0,0,1-1.53,24.88,194.48,194.48,0,0,0-1.53,24.87v11.1a71.48,71.48,0,0,0,.38,7.27,26.9,26.9,0,0,0,1.34,5.55,32.88,32.88,0,0,1,1.34,5.17,15.28,15.28,0,0,1-.38,2.1q-.39,1.72-1,3.45c-.38,1.15-.71,2.23-1,3.25a11.88,11.88,0,0,0-.38,1.92v19.13c0,2.05-.19,5.74-.57,11.1s-.77,11.17-1.15,17.42-.77,12.12-1.15,17.6-.71,9.25-1,11.29q-1.53,14.93-2.48,30.24t-1,30.23q0,16.46,1,32.34t2.48,32.34q0,25.26.39,50.71t.38,50.71a109.45,109.45,0,0,0-4.21,20.1,177.43,177.43,0,0,0-1.15,20.09,18.9,18.9,0,0,0,5,13.39,97.07,97.07,0,0,0,10.71,10,70.31,70.31,0,0,0,26.41,10.72,46.13,46.13,0,0,0,9.19,1.34,45.32,45.32,0,0,1,8.61,1.15,19.14,19.14,0,0,1,7.08,3.25,16,16,0,0,1,5,7.27,81.56,81.56,0,0,1-13.78,13.59,77,77,0,0,1-16.07,10.14,54.19,54.19,0,0,1-12.06,5.74q-5.94,1.92-12.05,3.26t-12.44,2.1q-6.31.77-13.59,2.3l-2.29,1.53a6.64,6.64,0,0,1-3.06,1.15,6.51,6.51,0,0,1-1.92.38,1.59,1.59,0,0,1-1.15.38H347a8.35,8.35,0,0,1-2.11-.38,7.93,7.93,0,0,0-2.1-.38c-2.81-.77-5-1.4-6.7-1.92s-3.38-1-5.17-1.53-3.06-.89-3.82-1.15a13.43,13.43,0,0,1-6.89-6.12q-2.29-4.22-4.21-8.23a31,31,0,0,0-4.6-7.08q-2.67-3.06-8-3.06a13.62,13.62,0,0,0-3.83.38,13.13,13.13,0,0,0-3.44,2.3q-11.11,7.66-21.25,14a176.21,176.21,0,0,1-20.28,10.91,118.24,118.24,0,0,1-21.43,7.27,107.26,107.26,0,0,1-24.69,2.68,49.24,49.24,0,0,1-12.63-1.73,85.39,85.39,0,0,1-12.63-4.4c-4.08-1.79-8.1-3.5-12-5.16s-7.6-3.13-10.91-4.4q-10-3.82-20.86-13a207.09,207.09,0,0,1-20.86-20.28,190.51,190.51,0,0,1-17.6-22.77q-7.67-11.69-10.34-20.86v-11.1a80.53,80.53,0,0,0-3.82-13.78Q84,761.07,81.56,753.6T77,738.86A49.32,49.32,0,0,1,74.86,725.08Zm68.89,2.68a73.72,73.72,0,0,0,1.34,13.4,129.6,129.6,0,0,0,3.64,14.73q2.29,7.47,5.16,14.35a64.33,64.33,0,0,0,6.32,11.87,16.39,16.39,0,0,0,3.83,4l4.59,3.44a39.47,39.47,0,0,1,4.21,3.64,10.63,10.63,0,0,1,2.68,4.59v8.8c.25.26,1.72,1.34,4.4,3.26l8.61,6.12q4.59,3.25,8.61,5.93c2.68,1.79,4.27,2.68,4.79,2.68a44.51,44.51,0,0,1,5,.57q3.82.58,8.42,1t8.42.77c2.55.25,4.08.38,4.59.38a35.91,35.91,0,0,1,5.94,2.68q4.39,2.29,5.55,3.06h4.59q10.34,0,21.24-5.74t18.94-10.72l2.68-2.68c.51-.76,1.28-1.78,2.3-3.06s2.1-2.61,3.25-4,2.17-2.67,3.06-3.82a27.88,27.88,0,0,1,2.11-2.49,45.61,45.61,0,0,0,3.44-4.21,20.57,20.57,0,0,0,1.92-3.06V771.39c0-1,.12-3,.38-5.93s.57-6.12,1-9.57.7-6.76.95-9.95.39-5.55.39-7.08c0-.25.12-1.15.38-2.68s.51-3.12.76-4.78.58-3.26,1-4.79a7.73,7.73,0,0,1,1-2.68q0-3.43.38-12.62T310,692q.19-10.14.58-19.33t.38-13a35,35,0,0,0,2.3-8.61,85.44,85.44,0,0,0,.38-8.62v-6.5a7,7,0,0,0-.77-1.92c-.51-1-1-2.1-1.53-3.25l-1.53-3.44a8.38,8.38,0,0,1-.76-2.11,68.89,68.89,0,0,1-3.45-8.8,60,60,0,0,0-2.68-7.27,33.64,33.64,0,0,0-3.82-6.51,39,39,0,0,0-6.51-6.51,71.26,71.26,0,0,0-8-3.06l-12-4q-6.32-2.12-12.06-3.83c-3.82-1.15-6.38-2-7.65-2.49-.77-.25-2.11-.63-4-1.15s-3.83-1.08-5.74-1.72-3.7-1.21-5.36-1.72a25.08,25.08,0,0,1-3.25-1.15h-2.68A56.91,56.91,0,0,0,218,578.5a64,64,0,0,0-11.48,4q-5.37,2.49-10.72,5.36t-11.86,5.55a6.27,6.27,0,0,0-3.45,1.34,8,8,0,0,1-2.29,1.33,58.28,58.28,0,0,0-9,10.91,87.87,87.87,0,0,0-7.08,12.82q0,2.31-.38,7.66c-.26,3.57-.45,7.34-.57,11.29s-.33,7.72-.58,11.29-.38,6.12-.38,7.65a21.13,21.13,0,0,0-1.15,5.36c-.26,2.3-.51,4.73-.77,7.27s-.44,4.85-.57,6.89-.19,3.45-.19,4.21a10.47,10.47,0,0,0-1.72,3.64,10.67,10.67,0,0,1-1.72,3.63,5.63,5.63,0,0,1-1.15,2.49q-1.16,1.72-2.49,3.45c-.9,1.14-1.72,2.17-2.49,3.06s-1.15,1.47-1.15,1.72a42.79,42.79,0,0,0-2.68,13.78Q143.76,721.26,143.75,727.76Z"/><path d="M602.1,805.15q-1.1-1.93-3.83-8.51t-5.48-14.1q-2.73-7.53-5.1-14.35c-1.59-4.53-2.62-7.78-3.1-9.72-.49-.32-1-1.87-1.46-4.62s-1-5.67-1.64-8.76-1.1-6-1.46-8.75-.55-4.45-.55-5.11a237,237,0,0,0-8.39-28.69q-5.12-14.1-9.84-28.21,0-1-2.19-6.8t-2.19-6.81a22.94,22.94,0,0,1-.73-4.38c-.24-2.26-.49-4.7-.73-7.29s-.49-5.11-.73-7.54-.36-4-.36-4.62a85.64,85.64,0,0,0-7.48-19.45,127.51,127.51,0,0,1-8.57-20.92q-4-15.06-7.12-30.39t-7.84-30.88a149.88,149.88,0,0,0-8-19.94q-4.74-9.72-9.85-19.45a14.23,14.23,0,0,0-.91-4.14,14.8,14.8,0,0,0-1.64-3.64,21.2,21.2,0,0,0-.55-2.92c-.36-1.62-.85-3.41-1.46-5.35s-1.15-3.73-1.64-5.35a13.53,13.53,0,0,0-1.09-2.92l-2.19-3.4a66.39,66.39,0,0,1-14.41-18.24,84.24,84.24,0,0,0-13.68-18.72,143.24,143.24,0,0,1-10.57-10.7q-4.74-5.36-4.75-15.56,0-6.32,2.38-9.73a15.73,15.73,0,0,1,5.65-5.11,21.45,21.45,0,0,1,7.29-2.19,64.24,64.24,0,0,1,7.3-.48,20.6,20.6,0,0,1,4.56-1q3.47-.48,7.66-1c2.79-.32,5.41-.64,7.84-1a46.39,46.39,0,0,1,5.47-.49,2.38,2.38,0,0,0,1.09-.48,2,2,0,0,0,1.1-.25,1.3,1.3,0,0,1,.73-.24l1.82,1a15.1,15.1,0,0,1,3.47,1,52,52,0,0,1,5.65,2.43c1.94,1,3.77,1.78,5.47,2.43a12.77,12.77,0,0,0,3.28,1,58.93,58.93,0,0,1,8,1q5.82,1,12.4,2.18c4.37.82,8.44,1.46,12.22,1.95a71.79,71.79,0,0,0,7.84.73Q576.92,402,576.93,420a77.1,77.1,0,0,1-2.55,20.43,74.32,74.32,0,0,0-2.56,19.94,148.59,148.59,0,0,0,1.83,24.8q1.82,10.69,4.37,20.67T583.49,526q2.93,10.22,5.48,22.86a37.31,37.31,0,0,0,.54,4.37q.56,3.4.91,7.3t.92,7.29a37.63,37.63,0,0,1,.54,4.38c.24,1,.79,2.92,1.64,5.83s1.83,6.25,2.92,10,2.19,7.3,3.28,10.7,1.89,6.08,2.38,8c.23.65.85,2.27,1.82,4.86s2,5.43,3.1,8.51,2.06,5.92,2.92,8.51a27.47,27.47,0,0,0,1.64,4.38,47.09,47.09,0,0,1,1.64,7.54c.6,3.73,1.15,5.91,1.64,6.56q4,12.66,8.39,26t9.12,24.56a23.88,23.88,0,0,1,3.28.48c1.7.33,2.68.49,2.92.49A24.52,24.52,0,0,0,650.42,696q4.94-2.67,7.12-12.41a36.13,36.13,0,0,0,2.55-7.53q1.45-5.6,3.1-12.16t2.92-12.16c.85-3.72,1.4-6.4,1.64-8a39.78,39.78,0,0,0,10.94-15.57,109.71,109.71,0,0,0,6.2-20.91,176.32,176.32,0,0,0,2.92-22.37q.74-11.18.73-20.91v-1c-.24-2-.55-4.62-.91-8s-.68-6.72-.92-10-.42-6.07-.54-8.51-.18-4-.18-4.62a21.3,21.3,0,0,1-1.46-3.89q-1.1-3.39-2.37-7.29c-.86-2.59-1.71-5.11-2.56-7.54s-1.4-4-1.64-4.62a120.37,120.37,0,0,1-1.64-14.1q-.55-8.26-1.28-16.78t-2.19-16.29a39,39,0,0,0-5.1-13.62,21.81,21.81,0,0,0-4.56-3.4c-2.55-1.62-4.44-2.75-5.65-3.41A53,53,0,0,0,645.32,437a24.69,24.69,0,0,1-9.67-3.64,18.26,18.26,0,0,1-6.38-7.79q-2.38-5.1-2.37-15.8v-3.41a38.21,38.21,0,0,1,.36-5.1,7.39,7.39,0,0,1,2.56-4.62,37.07,37.07,0,0,0,3.83-2.19c1.82-1.13,3.64-2.19,5.47-3.16s3.58-1.86,5.29-2.68a11.13,11.13,0,0,1,3.28-1.21h3.65a21.69,21.69,0,0,1,10.94,2.92,22.41,22.41,0,0,0,11.3,2.91h57.27c1,0,3.34,1.39,7.11,4.14s6.62,4.94,8.57,6.56c.24.33.79,1,1.64,1.95a24.19,24.19,0,0,1,2.56,3.65,34.88,34.88,0,0,1,2.18,4.37,6,6,0,0,1,.55,3.65q-.74,4.38-3.83,6.08a71.87,71.87,0,0,0-6.56,4.13,21.18,21.18,0,0,0-6.2,7.54q-2.75,5.1-2.74,15.81,0,12.64,1.46,28.93a127,127,0,0,0,5.47,28.45c.49,1,1.4,3.09,2.74,6.32s2.67,6.81,4,10.7,2.61,7.54,3.83,10.94,1.82,5.6,1.82,6.57q.74.48.73,5.84c0,3.57-.13,7.13-.36,10.69s-.37,5.52-.37,5.84a56.11,56.11,0,0,0,4,12.4,79.4,79.4,0,0,1,6.75,26.51q.56,7.29.55,15.07,0,4.38-.18,8.75t-.19,8.76a85.4,85.4,0,0,1,6.75,14.34q2.73,7.54,5.47,14.59A109.09,109.09,0,0,0,783,679.44a37.41,37.41,0,0,0,9.84,11.43h.37c2.19,0,4.43-1.13,6.75-3.41a28.56,28.56,0,0,0,5.28-6.8,23.63,23.63,0,0,0,2.92-12.4,53,53,0,0,1,1.46-14.35,5.89,5.89,0,0,1,.73-1.95,35.92,35.92,0,0,1,1.82-3.16,34.79,34.79,0,0,0,1.83-3.16,6,6,0,0,0,.73-1.94,228.63,228.63,0,0,0,8-30.4,297.86,297.86,0,0,1,7.66-30.88q0-1,2.19-5.11t2.19-5.1a88.35,88.35,0,0,0,6.2-20.43,116.7,116.7,0,0,0,2.19-21.39V525a23.43,23.43,0,0,0-1.28-4.87,22.58,22.58,0,0,1-1.28-4.86q-.74-2.43-.73-9.24V477.38a41.66,41.66,0,0,1,.73-9.24,44.36,44.36,0,0,0-8.2-14.59q-5.67-6.81-11.31-13.62a100.11,100.11,0,0,1-9.85-14.1,31.72,31.72,0,0,1-4.19-16.05v-2.43q4.38-10.69,11.49-12.4a64.52,64.52,0,0,1,15.13-1.71,122.49,122.49,0,0,1,21.71,1.95,119.26,119.26,0,0,0,21.33,1.94c1.46,0,3.71-.07,6.75-.24s4.8-.24,5.29-.24c2.43-1.29,4.38-2.27,5.83-2.92s2.86-1.29,4.2-1.94a10.35,10.35,0,0,1,2.37-1h3.28a17.05,17.05,0,0,1,6.75,1.7,27.8,27.8,0,0,1,7.11,4.62,28.35,28.35,0,0,1,5.66,7.06,16.88,16.88,0,0,1,2.37,8.51v.48q-2.19,11.19-4.93,22.86t-10,18.48c-.49.33-1.33.9-2.55,1.7s-2.55,1.79-4,2.92-2.86,2.27-4.2,3.4-2.25,1.87-2.73,2.19a10.19,10.19,0,0,1-1.64,2.92c-1.1,1.63-2.25,3.49-3.47,5.59s-2.55,4.22-4,6.33-2.55,3.81-3.28,5.1a30.4,30.4,0,0,0-3.29,11.92q-.36,6.07-1.09,11.91-2.55,9.74-5.47,22.86t-5.47,20.91q0,2-2.19,7.29a47.66,47.66,0,0,0-2.19,5.84,35.88,35.88,0,0,0-1.82,7.05q-1.1,5.59-2.19,12.16T859.6,597.5q-1.1,6.32-1.82,9.24v6.8a249.19,249.19,0,0,1-11.49,36.24,229.22,229.22,0,0,1-15.87,30.88l-2.73,3.64a16.28,16.28,0,0,1-2.74,3.16,28.61,28.61,0,0,0-.91,3.9q-.56,2.91-1.46,6.32t-1.64,6.56a15.21,15.21,0,0,1-1.1,3.65,14.91,14.91,0,0,0-1.09,3.4c-.24,1-.49,2.12-.73,3.41q-1.1.48-4.38,4.86a32.78,32.78,0,0,1-4,4.86,45.86,45.86,0,0,1-1.28,6.33,38.61,38.61,0,0,0-1.27,7.29q-1.46,9.74-3.83,21.89a135.46,135.46,0,0,1-6.75,23.34A68.35,68.35,0,0,1,785.92,802q-6.21,7.54-15.32,7.54t-14.4-4.13A27.48,27.48,0,0,1,748,794.7a75.48,75.48,0,0,1-4.74-15.32q-1.83-8.76-4.38-18c-1-2.59-1.77-4.62-2.37-6.07s-1.4-3.48-2.37-6.08a88.26,88.26,0,0,1-3.65-21.16,184.76,184.76,0,0,0-2.19-20.18,154.5,154.5,0,0,0-5.65-32.34,180.94,180.94,0,0,0-11.49-28.45H705q-5.12,0-7.66,2.43a19.17,19.17,0,0,0-4.19,6.08,64.1,64.1,0,0,0-3.1,8.75,53.16,53.16,0,0,1-4,10c-.5.66-1.41,1.79-2.74,3.41s-2.68,3.33-4,5.1L675.41,688a10.08,10.08,0,0,0-1.83,2.92c-.49,0-1,1-1.64,2.92a14.56,14.56,0,0,1-1.64,3.89c-.49,1.62-1.09,3.89-1.82,6.81s-1.46,6-2.19,9.24-1.34,6.16-1.82,8.75-.86,4.38-1.1,5.35a42,42,0,0,0-2,7.54q-1.29,6.07-2.56,13.13l-2.37,13.13c-.73,4.06-1.22,6.56-1.46,7.54a41.4,41.4,0,0,1-1.09,4.62q-1.1,4.13-2.74,9.48t-3.28,10.94c-1.09,3.73-2,6.57-2.74,8.51q-2.91,8.28-6.93,12.65t-11.3,4.37A36.39,36.39,0,0,1,613,817.07Q606.47,814.39,602.1,805.15Z"/><g id="wand"><g id="wand-2" data-name="wand"><path id="wand-3" data-name="wand" class="cls-2" d="M401.24,279.5l5.16,598.19c.06,7-19.34,12.74-43.12,12.79h-7.43c-23.77,0-43.27-5.62-43.33-12.61l-5.15-598.19Z"/><path d="M355.57,894.94c-22.86,0-47.39-5.31-47.49-17l-5.16-598.19a4.46,4.46,0,0,1,4.44-4.49l93.87-.19h0a4.45,4.45,0,0,1,4.45,4.41l5.15,598.19a9.31,9.31,0,0,1-3,6.73c-6.29,6.36-23.79,10.5-44.56,10.54l-7.43,0ZM311.86,284.13,317,877.84c.89,2.23,13.7,8.2,38.56,8.2h7.75c25,0,37.79-6.08,38.69-8.48L396.83,284Z"/><g id="crystal"><polygon class="cls-3" points="362.55 309.91 293.91 266.77 304.93 150.64 366.46 106.41 362.55 309.91"/><path d="M362.55,314.36a4.46,4.46,0,0,1-2.37-.68l-68.64-43.15a4.44,4.44,0,0,1-2.06-4.18l11-116.13a4.45,4.45,0,0,1,1.83-3.19l61.54-44.23a4.44,4.44,0,0,1,7,3.69L367,310a4.46,4.46,0,0,1-2.33,3.83A4.52,4.52,0,0,1,362.55,314.36Zm-64-49.9L358.25,302l3.6-186.76-52.69,37.87Z"/><polygon class="cls-4" points="405.14 252.46 409.36 119.64 366.46 106.41 362.55 309.91 405.14 252.46"/><path d="M362.55,314.36a4.48,4.48,0,0,1-1.44-.24,4.44,4.44,0,0,1-3-4.29L362,106.32a4.45,4.45,0,0,1,5.75-4.16l42.9,13.23a4.45,4.45,0,0,1,3.14,4.39L409.58,252.6a4.48,4.48,0,0,1-.87,2.51l-42.59,57.45A4.43,4.43,0,0,1,362.55,314.36Zm8.25-202-3.54,183.69,33.48-45.16,4.07-128Zm34.34,140.06h0Z"/></g><path d="M372.61,324c-62.14,89.55-32.9,144.38,1.82,193.47l-7.31-3.4c-53-58.48-43.62-127.64-2.13-184.35Z"/><path d="M370.78,351.37c-28.25,45.74-26.37,93.28,0,142.29l-6.76-9c-27.62-43.1-29.64-84.89,0-125.07Z"/><path d="M370.78,367.81c-17.14,33.49-16,68.3,0,104.17l-4.1-6.58c-16.76-31.55-18-62.15,0-91.55Z"/><path d="M374.43,384.43c-11.93,23.44-11.13,47.81,0,72.93l-2.85-4.6c-11.66-22.1-12.51-43.52,0-64.11Z"/><ellipse cx="379.92" cy="419.9" rx="9.14" ry="21.02"/><path d="M318.12,722c42.72-61.56,22.62-99.26-1.26-133l5,2.33c36.44,40.21,30,87.75,1.47,126.74Z"/><path d="M319.38,703.11c19.42-31.45,18.12-64.14,0-97.83l4.64,6.18c19,29.63,20.38,58.36,0,86Z"/><path d="M319.38,691.8c11.78-23,11-46.95,0-71.62l2.82,4.52c11.52,21.7,12.36,42.73,0,62.95Z"/><path d="M316.86,680.38c8.21-16.12,7.66-32.88,0-50.15l2,3.17c8,15.19,8.6,29.92,0,44.07Z"/><ellipse cx="313.1" cy="655.99" rx="6.28" ry="14.45"/><path d="M316.71,291.06,355.84,324c-19.41,23.86-39.13,98.69-23.48,142.55,6.28,17.59-10.3,16.27-13.69,29.24-5.06,19.32.28,49.86,1.95,56.66,5.87,23.75,39.13,60.3,35.22,127.92s-45,56.66-39.13,80.41-8.93,59.56-8.93,59.56V755.15C396.92,673,320.62,567,308.89,550.57s7.82-91.38,11.73-138.9,13.7-67.61,5.87-78.58C306,313.9,316.71,291.06,316.71,291.06Z"/><path d="M308.64,325.78s5.49,3.66,12.8,14.62-11,78.59-11,78.59,9.14-62.14,1.83-74.93S308.64,325.78,308.64,325.78Z"/><path d="M334.5,832.06l-.18-.67c-1.87-7-17.66-67.59-10.78-77.91,7.31-11,12.79-14.62,12.79-14.62C328.45,760.87,329.43,793.92,334.5,832.06Z"/><path d="M310.47,813.73c23.76,16.45,47.1,42.45,53,76.76l-31.07-3.66c-2.51-32.15-8.41-51.76-19.3-52.78Z"/><path d="M323.26,470.16c8.77,15.79,27.33,52.66,43.66,64.7,9.79,7.23,7.07,20.52,19.65,24L386,527.57c-30.61-2.06-49.36-47.6-53.61-61.07Z"/><path d="M327.76,504.1c1.29,0,2.84,1.34,4.64,4.43,12.79,21.93,20.1,25.59,31.07,43.87s3.65,85.89,3.65,85.89-18.27-60.31-32.89-73.1c-12.56-11-14.33-61.09-6.47-61.09m0-2.23c-1.49,0-3.56.79-5,4.57-4.36,11.59-1.75,50.15,10,60.42,14,12.23,32.06,71.48,32.24,72.07l3.16,10.45,1.17-10.85c.31-2.79,7.27-68.58-3.95-87.28a155.83,155.83,0,0,0-14.1-19.67,171.75,171.75,0,0,1-17-24.17c-1.39-2.37-3.58-5.54-6.56-5.54Z"/><path d="M332.28,519.5c1,0,2.12.92,3.47,3,9.56,14.94,15,17.42,23.21,29.87s2.73,58.49,2.73,58.49S348,569.81,337.12,561.1c-9.39-7.48-10.71-41.6-4.84-41.6m0-2.22h0c-1.37,0-3.26.71-4.45,4.11-3,8.64-.82,34.49,7.9,41.45,8.53,6.8,20.11,37.49,23.85,48.74l3.14,9.45,1.17-9.89c.23-1.91,5.46-47-3.08-60a107.53,107.53,0,0,0-10.59-13.48,116.22,116.22,0,0,1-12.6-16.37c-1.11-1.73-2.87-4-5.34-4Z"/><path d="M338.73,534.85c6,8,9,9.11,14.15,15.78s5.36,33.53,5.36,33.53S348.34,561.34,342,557,332.73,526.83,338.73,534.85Z"/><path d="M369,654.74l-23.76,95c-9.13,36.55-5.48,69.45,1.83,82.24s29.24,56.65,29.24,56.65L398,885.22s-30.91-27.63-34.56-56.87-20.1-51.17-9.14-73.1S369,654.74,369,654.74Z"/><path d="M357.06,772.45l.14.68c1.5,7.14,14.58,68.33,25.36,74.46,11.46,6.51,18,7.31,18,7.31C383.63,838.78,369.66,808.81,357.06,772.45Z"/></g><g id="purple_crystal" data-name="purple crystal"><polygon class="cls-5" points="352.01 330.86 339.98 282.25 382.33 194.65 420.36 173.96 352.01 330.86"/><path d="M352,335.3h-.37a4.45,4.45,0,0,1-3.94-3.37l-12-48.61a4.44,4.44,0,0,1,.32-3l42.35-87.59a4.37,4.37,0,0,1,1.88-2l38-20.7a4.45,4.45,0,0,1,6.2,5.68l-68.34,156.9A4.45,4.45,0,0,1,352,335.3Zm-7.33-52.56,8.5,34.31,57.93-133-25.4,13.82Z"/><polygon class="cls-6" points="387.15 295.72 432.39 193.69 420.36 173.96 352.01 330.86 387.15 295.72"/><path d="M352,335.3a4.44,4.44,0,0,1-4.07-6.22l68.34-156.9a4.44,4.44,0,0,1,7.87-.54l12,19.73a4.46,4.46,0,0,1,.27,4.12l-45.24,102a4.27,4.27,0,0,1-.92,1.34L355.16,334A4.44,4.44,0,0,1,352,335.3Zm69-151.72L365.46,311.12l18-18,44-99.15ZM387.15,295.72h0Z"/></g><g id="red_crystal" data-name="red crystal"><polygon class="cls-7" points="261.57 198.81 308.95 215.01 359.66 298.05 356.48 341.22 261.57 198.81"/><path d="M356.48,345.67a4.44,4.44,0,0,1-3.7-2L257.87,201.28A4.45,4.45,0,0,1,263,194.6l47.38,16.21a4.41,4.41,0,0,1,2.36,1.89l50.71,83a4.49,4.49,0,0,1,.64,2.65l-3.19,43.17a4.46,4.46,0,0,1-4.43,4.12ZM272.55,207.26,353,328l2.13-28.83L306,218.7Z"/><polygon class="cls-8" points="272.08 247.37 333.37 340.65 356.48 341.22 261.57 198.81 272.08 247.37"/><path d="M356.48,345.67h-.11l-23.11-.57a4.46,4.46,0,0,1-3.61-2l-61.28-93.28a4.24,4.24,0,0,1-.63-1.5l-10.51-48.56a4.45,4.45,0,0,1,8-3.41l94.91,142.41a4.45,4.45,0,0,1-3.7,6.92Zm-20.67-9.41,12.22.31L270.88,220.8l5.38,24.82Z"/></g></g><g id="hat"><path class="cls-9" d="M484.27,797c10.72-4.26,25.11-3.43,41.13-.33-23.6,3.44-43.82.28-53.57,18.64-3.1,15.31,12.18,33.58,35.48,37.65,23.85,4.15,21,18.24,92.61,24.83s149.58,16,202.58,9.33,120.29-32.67,149.17-29.56c-9.72-42.23-33.18-35.3-70.24-36.07,13.13-5.18,27.16-8,42.71-6.61-30-32.12-52.28-27.9-125.31-39.91C696.26,753.67,568.43,754,484.27,797Z"/><path d="M626.23,768.05c54.38-3.61,115.26.82,171.44,12.47l.24,0c15.18,2.5,28.09,4.28,39.48,5.86,36,5,54.1,7.48,72.38,22.6a101.69,101.69,0,0,0-30.44,7.13,5.7,5.7,0,0,0,2,11c5.17.11,10,.07,14.67,0,26.16-.21,40.35-.33,48.19,24.42-1,0-2,.08-3.06.15-16.77,1.11-40.12,7.14-64.85,13.53-25.1,6.48-51.06,13.19-74.48,16.15-4.78.6-9.95,1.09-15.36,1.45-43.51,2.88-100.5-2.61-155.62-7.92-10-1-20.33-2-30.35-2.88-46.12-4.25-60.17-11.44-71.46-17.21-6-3.09-11.72-6-20.7-7.57-11.39-2-21.51-8-27.09-16.22-3.17-4.64-4.54-9.54-3.92-13.89,5.94-10.37,16.23-11.75,33.63-13.27,4.9-.43,10-.87,15.31-1.65a5.7,5.7,0,0,0,.26-11.24c-3.56-.68-6.92-1.24-10.11-1.66,31.46-11.31,68.81-18.6,109.86-21.32m-.38-5.69c-52.11,3.46-101.73,14.24-141.58,34.6a43.76,43.76,0,0,1,13.33-2.78c8.28-.55,17.72.5,27.8,2.45-23.6,3.44-43.82.28-53.57,18.64-3.1,15.31,12.18,33.58,35.48,37.65,23.85,4.15,21,18.24,92.61,24.83,64.86,6,134.88,14.27,186.88,10.82q8.16-.54,15.7-1.49c47.49-6,106.47-27.48,139-29.64a59.89,59.89,0,0,1,10.18.08c-9.72-42.23-33.18-35.3-70.24-36.07a96.16,96.16,0,0,1,29.09-6.76,88.81,88.81,0,0,1,13.62.15c-30-32.12-52.28-27.9-125.31-39.91-54-11.19-115-16.41-173-12.57Z"/><path d="M686.16,761.48a675.11,675.11,0,0,1,112.67,13.45c73,12,95.3,7.79,125.31,39.91-1.61-.14-3.2-.24-4.78-.29a93.28,93.28,0,0,0-37.93,6.9c10.56.22,20-.18,28.37.1,21,.72,34.92,5.78,41.87,36-1-.11-2.13-.19-3.27-.23-30.44-1-94.81,23.34-145.9,29.79-18.57,2.35-40.2,2.71-63.54,1.92-43.29-1.48-92.49-7-139-11.25-71.64-6.59-68.76-20.68-92.61-24.83-23.3-4.07-38.58-22.34-35.48-37.65,9.75-18.36,30-15.2,53.57-18.64a134.47,134.47,0,0,0-20.48-2.55c-7.76-.26-14.76.54-20.65,2.88,55.05-28.12,128.77-38,201.89-35.48m.22-6.33c-57.39-2-139.53,2.72-205,36.17a6.33,6.33,0,0,0-3,7.92,32.54,32.54,0,0,0-12.12,13.06,6.62,6.62,0,0,0-.62,1.71c-1.57,7.76.43,16.23,5.64,23.86,7.48,11,20.22,18.72,35,21.28,7.19,1.26,11.64,3.54,17.29,6.43,11.56,5.92,27.4,14,75.83,18.48,10,.92,20.14,1.9,30.31,2.88,36.83,3.55,74.92,7.22,109.09,8.39,26,.88,47.08.24,64.55-2,24.17-3.06,50.51-9.86,76-16.44,27.54-7.11,53.55-13.83,68.91-13.31,1,0,1.94.1,2.81.2l.46,0a6.34,6.34,0,0,0,6.39-7.75c-5.3-23-14.88-33.44-28.33-37.9a5.6,5.6,0,0,0,.33-.59,6.34,6.34,0,0,0-1.07-7.1c-25.33-27.11-45.51-29.9-89.73-36-11.28-1.56-24.07-3.33-39-5.8a685.32,685.32,0,0,0-113.61-13.55Z"/><path d="M698.34,847.57c-52-1.78-99.05-15.94-106.1-51.88a10.52,10.52,0,0,1,1.43-7.66h0c.14-.22,13.5-21.79,18.79-53.7,2.67-16.12.15-28.45-2.08-39.33-2.37-11.54-4.6-22.45-.13-34.24,6.29-16.58,22-16.7,30.42-16.76,2.57,0,6.83,0,8-.69a1.91,1.91,0,0,1,.09-.2c2.27-5.16,1.77-9.25.31-18.82a172,172,0,0,1-2.32-35c1.1-28.73,16.77-37.9,23.45-40.51.67-.26,1.35-.5,2-.71a57,57,0,0,0-14.86-10.29,10.58,10.58,0,0,1-6.2-9.27,53.87,53.87,0,0,1,.58-9.76,14.71,14.71,0,0,1-10.52-1.9,430.28,430.28,0,0,0-1.35,43.71,11.41,11.41,0,0,1-.07,1.43c-1.06,8.93-7,12.41-11.66,12.68-10.76.61-15.49-8.47-25-48.53-17.39-52.72-7.16-99.21,27.4-124.44s85.94-22.88,125,5.66a10.53,10.53,0,0,1,1.67,1.53c10.9,12.32,9.33,38,7.66,65.14-1,16.2-2.23,36.36,1,43.3,7.07,15.34,7,40.47,7,67.06,0,13.72,0,27.91,1,40.25,2.28,27.79,47.59,136.72,64.85,176.34a10.6,10.6,0,0,1,.87,4.48c-.76,30.39-74.68,39-97.31,40.92A372.87,372.87,0,0,1,698.34,847.57ZM614,795.11c7.13,19.09,39.66,26.39,59.14,29.07,28.09,3.87,63.54,3,94.83-2.29,30.62-5.2,45.56-12.63,49.68-16.54-11.58-26.79-62-144.92-64.77-179-1.09-13.22-1.06-27.86-1-42,0-23.14.08-47.07-5-58.19-5.42-11.77-4.24-31.08-2.86-53.43,1-16.93,2.59-42.21-1.88-49.16-31.56-22.41-72.06-24.44-98.94-4.83-25.4,18.54-33.36,51.8-22.39,92.15,2-16,5.7-22.37,12.86-24.29,3.28-.87,9.15-1.08,14.4,5.83,1.41-6.09,2.13-14.82.42-21.37a10.56,10.56,0,0,1,2.57-9.94c5.34-5.61,13.65-13,24.12-12.29,6.79.45,12.73,4.13,17.65,10.92a10.52,10.52,0,0,1,2,5.84c.36,10.79-5.14,20.31-11,30.39-4.81,8.33-9.76,16.9-11.11,26,11.73,7.06,29,21.49,27.59,39.5a10.55,10.55,0,0,1-18,6.65c-.37-.24-2.42-.71-5.05.59-5.49,2.72-8.87,10.49-9.29,21.33a150.37,150.37,0,0,0,2.1,31c1.59,10.47,3,19.5-1.86,30.48-5.86,13.35-19.27,13.45-27.28,13.51-9.26.07-9.94.76-10.84,3.14-2.3,6.06-.89,13,1.07,22.51,2.47,12,5.54,27,2.23,47A186.65,186.65,0,0,1,614,795.11Zm56-322.95c.17,1.44.3,2.95.37,4.51a38.46,38.46,0,0,0,2.72-6.54A14.07,14.07,0,0,0,669.94,472.16Z"/></g><path d="M660.7,639S638,654.12,653.29,652.8s32.32,13.55,32.32,13.55Z"/><path d="M688,551.73,707,592.93c-4.69-10.25-17.2-35.43-31.23-40.21Z"/><path d="M762.92,625.79c-2.22,12.4-6.8,19.83-12,25.94,11.52-2.75,19-6,17.6-10.31Z"/><path d="M814.3,763c-22.1,23.61-80,22.55-120.08,33.11,83.38-2.35,138-6.72,130.5-15.5Z"/><path d="M623.35,707.82c-3,17.91,10.93,26,27.2,32.85-14.28-4.09-21.17-3.32-29.51,3.1Z"/><path d="M644.73,653.06c17.74,4.64,21.27,13.14,32.46,24.13-17.21-12.18-34.13-22.52-49.53-23Z"/><path d="M613.4,763.37c4.59-5.41,19.22-7.09,34.94-8.37-12,.39-22.57-.44-28.29-5.29Z"/><path d="M759.92,511.71l4.47,15.71c-5.74.21-9.48,20.48-13.44,38.6C752.17,542.47,752,514.48,759.92,511.71Z"/><g class="cls-10"><g id="hat-2" data-name="hat"><path class="cls-11" d="M484.27,797c10.72-4.26,25.11-3.43,41.13-.33-23.6,3.44-43.82.28-53.57,18.64-3.1,15.31,12.18,33.58,35.48,37.65,23.85,4.15,21,18.24,92.61,24.83s149.58,16,202.58,9.33,120.29-32.67,149.17-29.56c-9.72-42.23-33.18-35.3-70.24-36.07,13.13-5.18,27.16-8,42.71-6.61-30-32.12-52.28-27.9-125.31-39.91C696.26,753.67,568.43,754,484.27,797Z"/><path class="cls-11" d="M626.23,768.05c54.38-3.61,115.26.82,171.44,12.47l.24,0c15.18,2.5,28.09,4.28,39.48,5.86,36,5,54.1,7.48,72.38,22.6a101.69,101.69,0,0,0-30.44,7.13,5.7,5.7,0,0,0,2,11c5.17.11,10,.07,14.67,0,26.16-.21,40.35-.33,48.19,24.42-1,0-2,.08-3.06.15-16.77,1.11-40.12,7.14-64.85,13.53-25.1,6.48-51.06,13.19-74.48,16.15-4.78.6-9.95,1.09-15.36,1.45-43.51,2.88-100.5-2.61-155.62-7.92-10-1-20.33-2-30.35-2.88-46.12-4.25-60.17-11.44-71.46-17.21-6-3.09-11.72-6-20.7-7.57-11.39-2-21.51-8-27.09-16.22-3.17-4.64-4.54-9.54-3.92-13.89,5.94-10.37,16.23-11.75,33.63-13.27,4.9-.43,10-.87,15.31-1.65a5.7,5.7,0,0,0,.26-11.24c-3.56-.68-6.92-1.24-10.11-1.66,31.46-11.31,68.81-18.6,109.86-21.32m-.38-5.69c-52.11,3.46-101.73,14.24-141.58,34.6a43.76,43.76,0,0,1,13.33-2.78c8.28-.55,17.72.5,27.8,2.45-23.6,3.44-43.82.28-53.57,18.64-3.1,15.31,12.18,33.58,35.48,37.65,23.85,4.15,21,18.24,92.61,24.83,64.86,6,134.88,14.27,186.88,10.82q8.16-.54,15.7-1.49c47.49-6,106.47-27.48,139-29.64a59.89,59.89,0,0,1,10.18.08c-9.72-42.23-33.18-35.3-70.24-36.07a96.16,96.16,0,0,1,29.09-6.76,88.81,88.81,0,0,1,13.62.15c-30-32.12-52.28-27.9-125.31-39.91-54-11.19-115-16.41-173-12.57Z"/><path class="cls-11" d="M686.16,761.48a675.11,675.11,0,0,1,112.67,13.45c73,12,95.3,7.79,125.31,39.91-1.61-.14-3.2-.24-4.78-.29a93.28,93.28,0,0,0-37.93,6.9c10.56.22,20-.18,28.37.1,21,.72,34.92,5.78,41.87,36-1-.11-2.13-.19-3.27-.23-30.44-1-94.81,23.34-145.9,29.79-18.57,2.35-40.2,2.71-63.54,1.92-43.29-1.48-92.49-7-139-11.25-71.64-6.59-68.76-20.68-92.61-24.83-23.3-4.07-38.58-22.34-35.48-37.65,9.75-18.36,30-15.2,53.57-18.64a134.47,134.47,0,0,0-20.48-2.55c-7.76-.26-14.76.54-20.65,2.88,55.05-28.12,128.77-38,201.89-35.48m.22-6.33c-57.39-2-139.53,2.72-205,36.17a6.33,6.33,0,0,0-3,7.92,32.54,32.54,0,0,0-12.12,13.06,6.62,6.62,0,0,0-.62,1.71c-1.57,7.76.43,16.23,5.64,23.86,7.48,11,20.22,18.72,35,21.28,7.19,1.26,11.64,3.54,17.29,6.43,11.56,5.92,27.4,14,75.83,18.48,10,.92,20.14,1.9,30.31,2.88,36.83,3.55,74.92,7.22,109.09,8.39,26,.88,47.08.24,64.55-2,24.17-3.06,50.51-9.86,76-16.44,27.54-7.11,53.55-13.83,68.91-13.31,1,0,1.94.1,2.81.2l.46,0a6.34,6.34,0,0,0,6.39-7.75c-5.3-23-14.88-33.44-28.33-37.9a5.6,5.6,0,0,0,.33-.59,6.34,6.34,0,0,0-1.07-7.1c-25.33-27.11-45.51-29.9-89.73-36-11.28-1.56-24.07-3.33-39-5.8a685.32,685.32,0,0,0-113.61-13.55Z"/><path class="cls-11" d="M698.34,847.57c-52-1.78-99.05-15.94-106.1-51.88a10.52,10.52,0,0,1,1.43-7.66h0c.14-.22,13.5-21.79,18.79-53.7,2.67-16.12.15-28.45-2.08-39.33-2.37-11.54-4.6-22.45-.13-34.24,6.29-16.58,22-16.7,30.42-16.76,2.57,0,6.83,0,8-.69a1.91,1.91,0,0,1,.09-.2c2.27-5.16,1.77-9.25.31-18.82a172,172,0,0,1-2.32-35c1.1-28.73,16.77-37.9,23.45-40.51.67-.26,1.35-.5,2-.71a57,57,0,0,0-14.86-10.29,10.58,10.58,0,0,1-6.2-9.27,53.87,53.87,0,0,1,.58-9.76,14.71,14.71,0,0,1-10.52-1.9,430.28,430.28,0,0,0-1.35,43.71,11.41,11.41,0,0,1-.07,1.43c-1.06,8.93-7,12.41-11.66,12.68-10.76.61-15.49-8.47-25-48.53-17.39-52.72-7.16-99.21,27.4-124.44s85.94-22.88,125,5.66a10.53,10.53,0,0,1,1.67,1.53c10.9,12.32,9.33,38,7.66,65.14-1,16.2-2.23,36.36,1,43.3,7.07,15.34,7,40.47,7,67.06,0,13.72,0,27.91,1,40.25,2.28,27.79,47.59,136.72,64.85,176.34a10.6,10.6,0,0,1,.87,4.48c-.76,30.39-74.68,39-97.31,40.92A372.87,372.87,0,0,1,698.34,847.57ZM614,795.11c7.13,19.09,39.66,26.39,59.14,29.07,28.09,3.87,63.54,3,94.83-2.29,30.62-5.2,45.56-12.63,49.68-16.54-11.58-26.79-62-144.92-64.77-179-1.09-13.22-1.06-27.86-1-42,0-23.14.08-47.07-5-58.19-5.42-11.77-4.24-31.08-2.86-53.43,1-16.93,2.59-42.21-1.88-49.16-31.56-22.41-72.06-24.44-98.94-4.83-25.4,18.54-33.36,51.8-22.39,92.15,2-16,5.7-22.37,12.86-24.29,3.28-.87,9.15-1.08,14.4,5.83,1.41-6.09,2.13-14.82.42-21.37a10.56,10.56,0,0,1,2.57-9.94c5.34-5.61,13.65-13,24.12-12.29,6.79.45,12.73,4.13,17.65,10.92a10.52,10.52,0,0,1,2,5.84c.36,10.79-5.14,20.31-11,30.39-4.81,8.33-9.76,16.9-11.11,26,11.73,7.06,29,21.49,27.59,39.5a10.55,10.55,0,0,1-18,6.65c-.37-.24-2.42-.71-5.05.59-5.49,2.72-8.87,10.49-9.29,21.33a150.37,150.37,0,0,0,2.1,31c1.59,10.47,3,19.5-1.86,30.48-5.86,13.35-19.27,13.45-27.28,13.51-9.26.07-9.94.76-10.84,3.14-2.3,6.06-.89,13,1.07,22.51,2.47,12,5.54,27,2.23,47A186.65,186.65,0,0,1,614,795.11Zm56-322.95c.17,1.44.3,2.95.37,4.51a38.46,38.46,0,0,0,2.72-6.54A14.07,14.07,0,0,0,669.94,472.16Z"/><path class="cls-11" d="M602.6,793.66s14.53-22.94,20.27-57.6-9.81-52.92-2.75-71.56,31.74-2.15,38.32-17.15-2.36-25.23-1.12-57.66,24.54-36.84,32.38-29c1.11-14.76-18.68-28.39-28-32.58-.87-26.06,23-44.89,22.41-62.21-8-11-16.65-6.94-25.59,2.46,5,19-4.75,55.91-17.71,32.5s-11.51,59.83-11.51,59.83-2.38,20.08-16-37.48c-37.79-113.56,65.25-159.07,136-107.37,14.64,16.55-2.57,85.23,6.94,105.86s4.09,68.13,7,103.75S829,805.19,829,805.19C828.23,837.82,615.87,861.29,602.6,793.66Z"/><path class="cls-11" d="M484.27,797c10.72-4.26,25.11-3.43,41.13-.33-23.6,3.44-43.82.28-53.57,18.64-3.1,15.31,12.18,33.58,35.48,37.65,23.85,4.15,21,18.24,92.61,24.83s149.58,16,202.58,9.33,120.29-32.67,149.17-29.56c-9.72-42.23-33.18-35.3-70.24-36.07,13.13-5.18,27.16-8,42.71-6.61-30-32.12-52.28-27.9-125.31-39.91C696.26,753.67,568.43,754,484.27,797Z"/><path class="cls-11" d="M626.23,768.05c54.38-3.61,115.26.82,171.44,12.47l.24,0c15.18,2.5,28.09,4.28,39.48,5.86,36,5,54.1,7.48,72.38,22.6a101.69,101.69,0,0,0-30.44,7.13,5.7,5.7,0,0,0,2,11c5.17.11,10,.07,14.67,0,26.16-.21,40.35-.33,48.19,24.42-1,0-2,.08-3.06.15-16.77,1.11-40.12,7.14-64.85,13.53-25.1,6.48-51.06,13.19-74.48,16.15-4.78.6-9.95,1.09-15.36,1.45-43.51,2.88-100.5-2.61-155.62-7.92-10-1-20.33-2-30.35-2.88-46.12-4.25-60.17-11.44-71.46-17.21-6-3.09-11.72-6-20.7-7.57-11.39-2-21.51-8-27.09-16.22-3.17-4.64-4.54-9.54-3.92-13.89,5.94-10.37,16.23-11.75,33.63-13.27,4.9-.43,10-.87,15.31-1.65a5.7,5.7,0,0,0,.26-11.24c-3.56-.68-6.92-1.24-10.11-1.66,31.46-11.31,68.81-18.6,109.86-21.32m-.38-5.69c-52.11,3.46-101.73,14.24-141.58,34.6a43.76,43.76,0,0,1,13.33-2.78c8.28-.55,17.72.5,27.8,2.45-23.6,3.44-43.82.28-53.57,18.64-3.1,15.31,12.18,33.58,35.48,37.65,23.85,4.15,21,18.24,92.61,24.83,64.86,6,134.88,14.27,186.88,10.82q8.16-.54,15.7-1.49c47.49-6,106.47-27.48,139-29.64a59.89,59.89,0,0,1,10.18.08c-9.72-42.23-33.18-35.3-70.24-36.07a96.16,96.16,0,0,1,29.09-6.76,88.81,88.81,0,0,1,13.62.15c-30-32.12-52.28-27.9-125.31-39.91-54-11.19-115-16.41-173-12.57Z"/><path class="cls-11" d="M686.16,761.48a675.11,675.11,0,0,1,112.67,13.45c73,12,95.3,7.79,125.31,39.91-1.61-.14-3.2-.24-4.78-.29a93.28,93.28,0,0,0-37.93,6.9c10.56.22,20-.18,28.37.1,21,.72,34.92,5.78,41.87,36-1-.11-2.13-.19-3.27-.23-30.44-1-94.81,23.34-145.9,29.79-18.57,2.35-40.2,2.71-63.54,1.92-43.29-1.48-92.49-7-139-11.25-71.64-6.59-68.76-20.68-92.61-24.83-23.3-4.07-38.58-22.34-35.48-37.65,9.75-18.36,30-15.2,53.57-18.64a134.47,134.47,0,0,0-20.48-2.55c-7.76-.26-14.76.54-20.65,2.88,55.05-28.12,128.77-38,201.89-35.48m.22-6.33c-57.39-2-139.53,2.72-205,36.17a6.33,6.33,0,0,0-3,7.92,32.54,32.54,0,0,0-12.12,13.06,6.62,6.62,0,0,0-.62,1.71c-1.57,7.76.43,16.23,5.64,23.86,7.48,11,20.22,18.72,35,21.28,7.19,1.26,11.64,3.54,17.29,6.43,11.56,5.92,27.4,14,75.83,18.48,10,.92,20.14,1.9,30.31,2.88,36.83,3.55,74.92,7.22,109.09,8.39,26,.88,47.08.24,64.55-2,24.17-3.06,50.51-9.86,76-16.44,27.54-7.11,53.55-13.83,68.91-13.31,1,0,1.94.1,2.81.2l.46,0a6.34,6.34,0,0,0,6.39-7.75c-5.3-23-14.88-33.44-28.33-37.9a5.6,5.6,0,0,0,.33-.59,6.34,6.34,0,0,0-1.07-7.1c-25.33-27.11-45.51-29.9-89.73-36-11.28-1.56-24.07-3.33-39-5.8a685.32,685.32,0,0,0-113.61-13.55Z"/><path class="cls-11" d="M698.34,847.57c-52-1.78-99.05-15.94-106.1-51.88a10.52,10.52,0,0,1,1.43-7.66h0c.14-.22,13.5-21.79,18.79-53.7,2.67-16.12.15-28.45-2.08-39.33-2.37-11.54-4.6-22.45-.13-34.24,6.29-16.58,22-16.7,30.42-16.76,2.57,0,6.83,0,8-.69a1.91,1.91,0,0,1,.09-.2c2.27-5.16,1.77-9.25.31-18.82a172,172,0,0,1-2.32-35c1.1-28.73,16.77-37.9,23.45-40.51.67-.26,1.35-.5,2-.71a57,57,0,0,0-14.86-10.29,10.58,10.58,0,0,1-6.2-9.27,53.87,53.87,0,0,1,.58-9.76,14.71,14.71,0,0,1-10.52-1.9,430.28,430.28,0,0,0-1.35,43.71,11.41,11.41,0,0,1-.07,1.43c-1.06,8.93-7,12.41-11.66,12.68-10.76.61-15.49-8.47-25-48.53-17.39-52.72-7.16-99.21,27.4-124.44s85.94-22.88,125,5.66a10.53,10.53,0,0,1,1.67,1.53c10.9,12.32,9.33,38,7.66,65.14-1,16.2-2.23,36.36,1,43.3,7.07,15.34,7,40.47,7,67.06,0,13.72,0,27.91,1,40.25,2.28,27.79,47.59,136.72,64.85,176.34a10.6,10.6,0,0,1,.87,4.48c-.76,30.39-74.68,39-97.31,40.92A372.87,372.87,0,0,1,698.34,847.57ZM614,795.11c7.13,19.09,39.66,26.39,59.14,29.07,28.09,3.87,63.54,3,94.83-2.29,30.62-5.2,45.56-12.63,49.68-16.54-11.58-26.79-62-144.92-64.77-179-1.09-13.22-1.06-27.86-1-42,0-23.14.08-47.07-5-58.19-5.42-11.77-4.24-31.08-2.86-53.43,1-16.93,2.59-42.21-1.88-49.16-31.56-22.41-72.06-24.44-98.94-4.83-25.4,18.54-33.36,51.8-22.39,92.15,2-16,5.7-22.37,12.86-24.29,3.28-.87,9.15-1.08,14.4,5.83,1.41-6.09,2.13-14.82.42-21.37a10.56,10.56,0,0,1,2.57-9.94c5.34-5.61,13.65-13,24.12-12.29,6.79.45,12.73,4.13,17.65,10.92a10.52,10.52,0,0,1,2,5.84c.36,10.79-5.14,20.31-11,30.39-4.81,8.33-9.76,16.9-11.11,26,11.73,7.06,29,21.49,27.59,39.5a10.55,10.55,0,0,1-18,6.65c-.37-.24-2.42-.71-5.05.59-5.49,2.72-8.87,10.49-9.29,21.33a150.37,150.37,0,0,0,2.1,31c1.59,10.47,3,19.5-1.86,30.48-5.86,13.35-19.27,13.45-27.28,13.51-9.26.07-9.94.76-10.84,3.14-2.3,6.06-.89,13,1.07,22.51,2.47,12,5.54,27,2.23,47A186.65,186.65,0,0,1,614,795.11Zm56-322.95c.17,1.44.3,2.95.37,4.51a38.46,38.46,0,0,0,2.72-6.54A14.07,14.07,0,0,0,669.94,472.16Z"/><path class="cls-11" d="M602.6,793.66s14.53-22.94,20.27-57.6-9.81-52.92-2.75-71.56,31.74-2.15,38.32-17.15-2.36-25.23-1.12-57.66,24.54-36.84,32.38-29c1.11-14.76-18.68-28.39-28-32.58-.87-26.06,23-44.89,22.41-62.21-8-11-16.65-6.94-25.59,2.46,5,19-4.75,55.91-17.71,32.5s-11.51,59.83-11.51,59.83-2.38,20.08-16-37.48c-37.79-113.56,65.25-159.07,136-107.37,14.64,16.55-2.57,85.23,6.94,105.86s4.09,68.13,7,103.75S829,805.19,829,805.19C828.23,837.82,615.87,861.29,602.6,793.66Z"/><path class="cls-11" d="M484.27,797c10.72-4.26,25.11-3.43,41.13-.33-23.6,3.44-43.82.28-53.57,18.64-3.1,15.31,12.18,33.58,35.48,37.65,23.85,4.15,21,18.24,92.61,24.83s149.58,16,202.58,9.33,120.29-32.67,149.17-29.56c-9.72-42.23-33.18-35.3-70.24-36.07,13.13-5.18,27.16-8,42.71-6.61-30-32.12-52.28-27.9-125.31-39.91C696.26,753.67,568.43,754,484.27,797Z"/><path class="cls-11" d="M626.23,768.05c54.38-3.61,115.26.82,171.44,12.47l.24,0c15.18,2.5,28.09,4.28,39.48,5.86,36,5,54.1,7.48,72.38,22.6a101.69,101.69,0,0,0-30.44,7.13,5.7,5.7,0,0,0,2,11c5.17.11,10,.07,14.67,0,26.16-.21,40.35-.33,48.19,24.42-1,0-2,.08-3.06.15-16.77,1.11-40.12,7.14-64.85,13.53-25.1,6.48-51.06,13.19-74.48,16.15-4.78.6-9.95,1.09-15.36,1.45-43.51,2.88-100.5-2.61-155.62-7.92-10-1-20.33-2-30.35-2.88-46.12-4.25-60.17-11.44-71.46-17.21-6-3.09-11.72-6-20.7-7.57-11.39-2-21.51-8-27.09-16.22-3.17-4.64-4.54-9.54-3.92-13.89,5.94-10.37,16.23-11.75,33.63-13.27,4.9-.43,10-.87,15.31-1.65a5.7,5.7,0,0,0,.26-11.24c-3.56-.68-6.92-1.24-10.11-1.66,31.46-11.31,68.81-18.6,109.86-21.32m-.38-5.69c-52.11,3.46-101.73,14.24-141.58,34.6a43.76,43.76,0,0,1,13.33-2.78c8.28-.55,17.72.5,27.8,2.45-23.6,3.44-43.82.28-53.57,18.64-3.1,15.31,12.18,33.58,35.48,37.65,23.85,4.15,21,18.24,92.61,24.83,64.86,6,134.88,14.27,186.88,10.82q8.16-.54,15.7-1.49c47.49-6,106.47-27.48,139-29.64a59.89,59.89,0,0,1,10.18.08c-9.72-42.23-33.18-35.3-70.24-36.07a96.16,96.16,0,0,1,29.09-6.76,88.81,88.81,0,0,1,13.62.15c-30-32.12-52.28-27.9-125.31-39.91-54-11.19-115-16.41-173-12.57Z"/><path class="cls-11" d="M686.16,761.48a675.11,675.11,0,0,1,112.67,13.45c73,12,95.3,7.79,125.31,39.91-1.61-.14-3.2-.24-4.78-.29a93.28,93.28,0,0,0-37.93,6.9c10.56.22,20-.18,28.37.1,21,.72,34.92,5.78,41.87,36-1-.11-2.13-.19-3.27-.23-30.44-1-94.81,23.34-145.9,29.79-18.57,2.35-40.2,2.71-63.54,1.92-43.29-1.48-92.49-7-139-11.25-71.64-6.59-68.76-20.68-92.61-24.83-23.3-4.07-38.58-22.34-35.48-37.65,9.75-18.36,30-15.2,53.57-18.64a134.47,134.47,0,0,0-20.48-2.55c-7.76-.26-14.76.54-20.65,2.88,55.05-28.12,128.77-38,201.89-35.48m.22-6.33c-57.39-2-139.53,2.72-205,36.17a6.33,6.33,0,0,0-3,7.92,32.54,32.54,0,0,0-12.12,13.06,6.62,6.62,0,0,0-.62,1.71c-1.57,7.76.43,16.23,5.64,23.86,7.48,11,20.22,18.72,35,21.28,7.19,1.26,11.64,3.54,17.29,6.43,11.56,5.92,27.4,14,75.83,18.48,10,.92,20.14,1.9,30.31,2.88,36.83,3.55,74.92,7.22,109.09,8.39,26,.88,47.08.24,64.55-2,24.17-3.06,50.51-9.86,76-16.44,27.54-7.11,53.55-13.83,68.91-13.31,1,0,1.94.1,2.81.2l.46,0a6.34,6.34,0,0,0,6.39-7.75c-5.3-23-14.88-33.44-28.33-37.9a5.6,5.6,0,0,0,.33-.59,6.34,6.34,0,0,0-1.07-7.1c-25.33-27.11-45.51-29.9-89.73-36-11.28-1.56-24.07-3.33-39-5.8a685.32,685.32,0,0,0-113.61-13.55Z"/><path class="cls-11" d="M698.34,847.57c-52-1.78-99.05-15.94-106.1-51.88a10.52,10.52,0,0,1,1.43-7.66h0c.14-.22,13.5-21.79,18.79-53.7,2.67-16.12.15-28.45-2.08-39.33-2.37-11.54-4.6-22.45-.13-34.24,6.29-16.58,22-16.7,30.42-16.76,2.57,0,6.83,0,8-.69a1.91,1.91,0,0,1,.09-.2c2.27-5.16,1.77-9.25.31-18.82a172,172,0,0,1-2.32-35c1.1-28.73,16.77-37.9,23.45-40.51.67-.26,1.35-.5,2-.71a57,57,0,0,0-14.86-10.29,10.58,10.58,0,0,1-6.2-9.27,53.87,53.87,0,0,1,.58-9.76,14.71,14.71,0,0,1-10.52-1.9,430.28,430.28,0,0,0-1.35,43.71,11.41,11.41,0,0,1-.07,1.43c-1.06,8.93-7,12.41-11.66,12.68-10.76.61-15.49-8.47-25-48.53-17.39-52.72-7.16-99.21,27.4-124.44s85.94-22.88,125,5.66a10.53,10.53,0,0,1,1.67,1.53c10.9,12.32,9.33,38,7.66,65.14-1,16.2-2.23,36.36,1,43.3,7.07,15.34,7,40.47,7,67.06,0,13.72,0,27.91,1,40.25,2.28,27.79,47.59,136.72,64.85,176.34a10.6,10.6,0,0,1,.87,4.48c-.76,30.39-74.68,39-97.31,40.92A372.87,372.87,0,0,1,698.34,847.57ZM614,795.11c7.13,19.09,39.66,26.39,59.14,29.07,28.09,3.87,63.54,3,94.83-2.29,30.62-5.2,45.56-12.63,49.68-16.54-11.58-26.79-62-144.92-64.77-179-1.09-13.22-1.06-27.86-1-42,0-23.14.08-47.07-5-58.19-5.42-11.77-4.24-31.08-2.86-53.43,1-16.93,2.59-42.21-1.88-49.16-31.56-22.41-72.06-24.44-98.94-4.83-25.4,18.54-33.36,51.8-22.39,92.15,2-16,5.7-22.37,12.86-24.29,3.28-.87,9.15-1.08,14.4,5.83,1.41-6.09,2.13-14.82.42-21.37a10.56,10.56,0,0,1,2.57-9.94c5.34-5.61,13.65-13,24.12-12.29,6.79.45,12.73,4.13,17.65,10.92a10.52,10.52,0,0,1,2,5.84c.36,10.79-5.14,20.31-11,30.39-4.81,8.33-9.76,16.9-11.11,26,11.73,7.06,29,21.49,27.59,39.5a10.55,10.55,0,0,1-18,6.65c-.37-.24-2.42-.71-5.05.59-5.49,2.72-8.87,10.49-9.29,21.33a150.37,150.37,0,0,0,2.1,31c1.59,10.47,3,19.5-1.86,30.48-5.86,13.35-19.27,13.45-27.28,13.51-9.26.07-9.94.76-10.84,3.14-2.3,6.06-.89,13,1.07,22.51,2.47,12,5.54,27,2.23,47A186.65,186.65,0,0,1,614,795.11Zm56-322.95c.17,1.44.3,2.95.37,4.51a38.46,38.46,0,0,0,2.72-6.54A14.07,14.07,0,0,0,669.94,472.16Z"/><path class="cls-11" d="M602.6,793.66s14.53-22.94,20.27-57.6-9.81-52.92-2.75-71.56,31.74-2.15,38.32-17.15-2.36-25.23-1.12-57.66,24.54-36.84,32.38-29c1.11-14.76-18.68-28.39-28-32.58-.87-26.06,23-44.89,22.41-62.21-8-11-16.65-6.94-25.59,2.46,5,19-4.75,55.91-17.71,32.5s-11.51,59.83-11.51,59.83-2.38,20.08-16-37.48c-37.79-113.56,65.25-159.07,136-107.37,14.64,16.55-2.57,85.23,6.94,105.86s4.09,68.13,7,103.75S829,805.19,829,805.19C828.23,837.82,615.87,861.29,602.6,793.66Z"/></g><path class="cls-11" d="M660.7,639S638,654.12,653.29,652.8s32.32,13.55,32.32,13.55Z"/><path class="cls-11" d="M688,551.73,707,592.93c-4.69-10.25-17.2-35.43-31.23-40.21Z"/><path class="cls-11" d="M762.92,625.79c-2.22,12.4-6.8,19.83-12,25.94,11.52-2.75,19-6,17.6-10.31Z"/><path class="cls-11" d="M814.3,763c-22.1,23.61-80,22.55-120.08,33.11,83.38-2.35,138-6.72,130.5-15.5Z"/><path class="cls-11" d="M623.35,707.82c-3,17.91,10.93,26,27.2,32.85-14.28-4.09-21.17-3.32-29.51,3.1Z"/><path class="cls-11" d="M644.73,653.06c17.74,4.64,21.27,13.14,32.46,24.13-17.21-12.18-34.13-22.52-49.53-23Z"/><path class="cls-11" d="M613.4,763.37c4.59-5.41,19.22-7.09,34.94-8.37-12,.39-22.57-.44-28.29-5.29Z"/><path class="cls-11" d="M759.92,511.71l4.47,15.71c-5.74.21-9.48,20.48-13.44,38.6C752.17,542.47,752,514.48,759.92,511.71Z"/></g></g></g></svg>